<svg width="95" height="18" viewBox="0 0 95 18" fill="none" xmlns="http://www.w3.org/2000/svg">
<path d="M3.994 3.624V8.035H9.736V10.631H3.994V17H0.672V1.039H10.836V3.624H3.994ZM20.2484 10.939L18.5214 6.055C18.4187 5.79833 18.3087 5.49767 18.1914 5.153C18.0814 4.80833 17.9751 4.43433 17.8724 4.031C17.7697 4.44167 17.6597 4.823 17.5424 5.175C17.4324 5.51967 17.3261 5.82033 17.2234 6.077L15.5074 10.939H20.2484ZM25.7924 17H23.2294C22.9434 17 22.7087 16.934 22.5254 16.802C22.3494 16.6627 22.2174 16.4867 22.1294 16.274L21.0514 13.227H14.6934L13.6154 16.274C13.5421 16.4573 13.4137 16.626 13.2304 16.78C13.0471 16.9267 12.8161 17 12.5374 17H9.95239L16.1894 1.039H19.5664L25.7924 17ZM35.9157 4.097C35.813 4.26567 35.7067 4.39033 35.5967 4.471C35.494 4.54433 35.3583 4.581 35.1897 4.581C35.0283 4.581 34.8523 4.526 34.6617 4.416C34.4783 4.29867 34.262 4.174 34.0127 4.042C33.7633 3.91 33.4773 3.789 33.1547 3.679C32.832 3.56167 32.4543 3.503 32.0217 3.503C31.259 3.503 30.687 3.67533 30.3057 4.02C29.9243 4.35733 29.7337 4.801 29.7337 5.351C29.7337 5.703 29.8363 5.99633 30.0417 6.231C30.2543 6.45833 30.5293 6.65633 30.8667 6.825C31.2113 6.99367 31.6 7.144 32.0327 7.276C32.4653 7.408 32.909 7.55467 33.3637 7.716C33.8183 7.87 34.262 8.05333 34.6947 8.266C35.1273 8.47867 35.5123 8.74633 35.8497 9.069C36.1943 9.39167 36.4693 9.78767 36.6747 10.257C36.8873 10.719 36.9937 11.2837 36.9937 11.951C36.9937 12.677 36.8653 13.359 36.6087 13.997C36.3593 14.6277 35.9963 15.1813 35.5197 15.658C35.043 16.1273 34.4527 16.4977 33.7487 16.769C33.052 17.0403 32.26 17.176 31.3727 17.176C30.8667 17.176 30.3607 17.1247 29.8547 17.022C29.356 16.9193 28.872 16.7763 28.4027 16.593C27.9407 16.4097 27.5043 16.1897 27.0937 15.933C26.683 15.6763 26.3237 15.3903 26.0157 15.075L26.9837 13.513C27.0643 13.3957 27.1707 13.3003 27.3027 13.227C27.4347 13.1463 27.574 13.106 27.7207 13.106C27.9187 13.106 28.1277 13.1793 28.3477 13.326C28.5677 13.4727 28.8207 13.634 29.1067 13.81C29.3927 13.986 29.7227 14.1473 30.0967 14.294C30.478 14.4407 30.9327 14.514 31.4607 14.514C32.2307 14.514 32.8247 14.338 33.2427 13.986C33.668 13.634 33.8807 13.1097 33.8807 12.413C33.8807 12.0097 33.7743 11.6833 33.5617 11.434C33.3563 11.1847 33.085 10.9757 32.7477 10.807C32.4103 10.6383 32.0253 10.4953 31.5927 10.378C31.16 10.2533 30.7163 10.1177 30.2617 9.971C29.807 9.82433 29.3633 9.64833 28.9307 9.443C28.498 9.23767 28.113 8.96633 27.7757 8.629C27.4383 8.29167 27.1633 7.87367 26.9507 7.375C26.7453 6.87633 26.6427 6.25667 26.6427 5.516C26.6427 4.922 26.76 4.34633 26.9947 3.789C27.2293 3.23167 27.574 2.73667 28.0287 2.304C28.4833 1.87133 29.0407 1.523 29.7007 1.259C30.368 0.994999 31.1307 0.862999 31.9887 0.862999C32.9493 0.862999 33.8367 1.01333 34.6507 1.314C35.472 1.60733 36.165 2.018 36.7297 2.546L35.9157 4.097ZM53.0598 1.039V17H49.7378V10.125H42.7088V17H39.3868V1.039H42.7088V7.815H49.7378V1.039H53.0598ZM59.7245 17H56.4025V1.039H59.7245V17ZM78.4846 9.014C78.4846 10.18 78.2866 11.2617 77.8906 12.259C77.502 13.2563 76.9483 14.118 76.2296 14.844C75.5183 15.57 74.6603 16.142 73.6556 16.56C72.651 16.9707 71.5363 17.176 70.3116 17.176C69.087 17.176 67.9723 16.9707 66.9676 16.56C65.963 16.142 65.1013 15.57 64.3826 14.844C63.664 14.118 63.1066 13.2563 62.7106 12.259C62.322 11.2617 62.1276 10.18 62.1276 9.014C62.1276 7.848 62.322 6.77 62.7106 5.78C63.1066 4.78267 63.664 3.921 64.3826 3.195C65.1013 2.469 65.963 1.90067 66.9676 1.49C67.9723 1.072 69.087 0.862999 70.3116 0.862999C71.5363 0.862999 72.651 1.072 73.6556 1.49C74.6603 1.90067 75.5183 2.47267 76.2296 3.206C76.9483 3.932 77.502 4.79367 77.8906 5.791C78.2866 6.781 78.4846 7.85533 78.4846 9.014ZM75.1076 9.014C75.1076 8.178 74.9976 7.43 74.7776 6.77C74.5576 6.10267 74.2386 5.538 73.8206 5.076C73.41 4.60667 72.9076 4.251 72.3136 4.009C71.727 3.75967 71.0596 3.635 70.3116 3.635C69.5636 3.635 68.8926 3.75967 68.2986 4.009C67.7046 4.251 67.1986 4.60667 66.7806 5.076C66.37 5.538 66.0546 6.10267 65.8346 6.77C65.6146 7.43 65.5046 8.178 65.5046 9.014C65.5046 9.85733 65.6146 10.6127 65.8346 11.28C66.0546 11.94 66.37 12.501 66.7806 12.963C67.1986 13.425 67.7046 13.7807 68.2986 14.03C68.8926 14.272 69.5636 14.393 70.3116 14.393C71.0596 14.393 71.727 14.272 72.3136 14.03C72.9076 13.7807 73.41 13.425 73.8206 12.963C74.2386 12.501 74.5576 11.94 74.7776 11.28C74.9976 10.6127 75.1076 9.85733 75.1076 9.014ZM94.5677 1.039V17H92.8627C92.606 17 92.3897 16.9597 92.2137 16.879C92.0377 16.791 91.8653 16.6443 91.6967 16.439L83.7437 6.319C83.7657 6.57567 83.7803 6.82867 83.7877 7.078C83.8023 7.32733 83.8097 7.55833 83.8097 7.771V17H80.8947V1.039H82.6327C82.772 1.039 82.8893 1.04633 82.9847 1.061C83.0873 1.06833 83.179 1.094 83.2597 1.138C83.3403 1.17467 83.4173 1.226 83.4907 1.292C83.564 1.358 83.6447 1.446 83.7327 1.556L91.7407 11.72C91.7113 11.4413 91.6893 11.1737 91.6747 10.917C91.66 10.653 91.6527 10.4037 91.6527 10.169V1.039H94.5677Z" fill="#061A40"/>
</svg>
